# xmcd
#
# Track frame offsets:
#	150
#	9675
#	19855
#	29702
#	39145
#	52802
#	66110
#	75962
#	86440
#	97562
#	109160
#	121717
#	132545
#	143282
#	153727
#	165892
#	174512
#	182975
#	196827
#	213020
#	226767
#	236532
#	248142
#	262627
#	272142
#	284290
#
# Disc length: 3894 seconds
#
# Revision: 1
# Processed by: cddbd v1.5.2PL0 Copyright (c) Steve Scherf et al.
# Submitted via: EasyCDDAExtractor 12.0.0.1
#
DISCID=3d0f341a
DTITLE=Various Artist - Memphis Belles: The Women Of Sun Records - Disc 04 (B
DTITLE=lues)
DYEAR=2002
DGENRE=Blues
TTITLE0=Hannah Fay - 24 Hours Every Day (1)
TTITLE1=Bonnie Turner - Old Brother Jack
TTITLE2=Bonnie Turner - Love Is A Gamble (1)
TTITLE3=Bette Kirby - So Tired (1)
TTITLE4=Big Memphis Marainey - Call Me Anything
TTITLE5=Maggie Sue Wimberly - Call Me Anything
TTITLE6=Jean Chapel - I Won't Be Rockin' Tonight
TTITLE7=Mikki Wilcox - I Know What It Means (Demo Version)
TTITLE8=Mikki Wilcox - I Know What It Means
TTITLE9=Mikki Wilcox - Willing And Waiting
TTITLE10=Janie McFadden/Dusty Brooks - Two Blue Devils
TTITLE11=Jean Dee - Nothing Down
TTITLE12=Barbara Pittman - Handsome Man
TTITLE13=Alice Leslie - Handsome Man
TTITLE14=Big Memphis Marainey - Baby No! No!
TTITLE15=Gloria Brady - Listen (Demo Version)
TTITLE16=Jean Chapel - Welcome To The Club
TTITLE17=Unknown Singer - You Send Me
TTITLE18=Unknown Singer - Good To Me
TTITLE19=Bonnie Turner - Way Down In The Congo
TTITLE20=Bonnie Turner - Love Is A Gamble (2)
TTITLE21=Bette Kirby - So Tired (2)
TTITLE22=Sterling Sisters - St. Louis Blues (Demo Version)
TTITLE23=Hannah Fay - 24 Hours Every Day (2)
TTITLE24=Juanita Brown - Heaven Or Fire
TTITLE25=Bobbie Jean Barton - I'd Rather Hurt
EXTD=YEAR: 1950 ID3G: 0
EXTT0=
EXTT1=
EXTT2=
EXTT3=
EXTT4=
EXTT5=
EXTT6=
EXTT7=
EXTT8=
EXTT9=
EXTT10=
EXTT11=
EXTT12=
EXTT13=
EXTT14=
EXTT15=
EXTT16=
EXTT17=
EXTT18=
EXTT19=
EXTT20=
EXTT21=
EXTT22=
EXTT23=
EXTT24=
EXTT25=
PLAYORDER=
